<svg width="21" height="21" viewBox="0 0 21 21" fill="none" xmlns="http://www.w3.org/2000/svg">
<path d="M1.74219 5.5L7.50304 8.76414C9.62685 9.9675 10.5242 9.9675 12.648 8.76414L18.4089 5.5" stroke="#808080" stroke-width="1.25" stroke-linejoin="round"/>
<path d="M1.75533 11.729C1.8098 14.2837 1.83705 15.5609 2.77965 16.5072C3.72225 17.4533 5.03413 17.4863 7.65788 17.5522C9.27494 17.5929 10.8761 17.5929 12.4932 17.5522C15.1169 17.4863 16.4288 17.4533 17.3714 16.5072C18.314 15.5609 18.3413 14.2837 18.3957 11.729C18.4133 10.9076 18.4133 10.0911 18.3957 9.26968C18.3413 6.71507 18.314 5.43776 17.3714 4.49157C16.4288 3.54537 15.1169 3.51242 12.4932 3.44649C10.8761 3.40586 9.27494 3.40586 7.65787 3.44648C5.03413 3.5124 3.72225 3.54536 2.77965 4.49156C1.83704 5.43775 1.8098 6.71506 1.75532 9.26968C1.7378 10.0911 1.73781 10.9076 1.75533 11.729Z" stroke="#808080" stroke-width="1.25" stroke-linejoin="round"/>
</svg>
