<svg width="21" height="21" viewBox="0 0 21 21" fill="none" xmlns="http://www.w3.org/2000/svg">
<path d="M10.0781 14.2507V12.584" stroke="#808080" stroke-width="1.25" stroke-linecap="round"/>
<path d="M3.63724 16.2039C3.82464 17.5958 4.9775 18.6862 6.38045 18.7507C7.56095 18.805 8.76015 18.8333 10.0807 18.8333C11.4013 18.8333 12.6005 18.805 13.781 18.7507C15.184 18.6862 16.3368 17.5958 16.5242 16.2039C16.6465 15.2956 16.7474 14.3647 16.7474 13.4167C16.7474 12.4687 16.6465 11.5378 16.5242 10.6294C16.3368 9.2375 15.184 8.14707 13.781 8.08257C12.6005 8.02831 11.4013 8 10.0807 8C8.76015 8 7.56095 8.02831 6.38045 8.08257C4.9775 8.14707 3.82464 9.2375 3.63724 10.6294C3.51494 11.5378 3.41406 12.4687 3.41406 13.4167C3.41406 14.3647 3.51494 15.2956 3.63724 16.2039Z" stroke="#808080" stroke-width="1.25"/>
<path d="M6.32812 7.99935V5.91602C6.32812 3.84495 8.00706 2.16602 10.0781 2.16602C12.1492 2.16602 13.8281 3.84495 13.8281 5.91602V7.99935" stroke="#808080" stroke-width="1.25" stroke-linecap="round" stroke-linejoin="round"/>
</svg>
