<svg width="56" height="57" viewBox="0 0 56 57" fill="none" xmlns="http://www.w3.org/2000/svg">
<rect y="0.5" width="56" height="56" rx="28" fill="#FECDCA"/>
<path d="M28.0019 23.8337V28.5004M28.0019 33.1671H28.0135M26.0069 17.8371L16.1252 34.3337C15.9215 34.6866 15.8136 35.0866 15.8125 35.494C15.8114 35.9014 15.9169 36.3021 16.1187 36.656C16.3204 37.01 16.6114 37.3049 16.9625 37.5116C17.3137 37.7182 17.7128 37.8293 18.1202 37.8337H37.8835C38.2909 37.8293 38.69 37.7182 39.0412 37.5116C39.3923 37.3049 39.6833 37.01 39.885 36.656C40.0868 36.3021 40.1923 35.9014 40.1912 35.494C40.1901 35.0866 40.0823 34.6866 39.8785 34.3337L29.9969 17.8371C29.7889 17.4942 29.496 17.2107 29.1466 17.014C28.7971 16.8172 28.4029 16.7139 28.0019 16.7139C27.6008 16.7139 27.2066 16.8172 26.8571 17.014C26.5077 17.2107 26.2148 17.4942 26.0069 17.8371Z" stroke="#B42318" stroke-width="2.33333" stroke-linecap="round" stroke-linejoin="round"/>
</svg>
