<svg width="65" height="65" viewBox="0 0 65 65" fill="none" xmlns="http://www.w3.org/2000/svg">
<circle cx="32.5" cy="32.5" r="32" fill="#ECEBFF"/>
<path fill-rule="evenodd" clip-rule="evenodd" d="M27.0707 23.2552C27.3994 21.6429 28.8344 20.502 30.4775 20.502H34.4997C36.1427 20.502 37.5766 21.6429 37.9064 23.2552C37.9428 23.4327 38.0378 23.5929 38.1762 23.7099C38.3146 23.8268 38.4884 23.8938 38.6695 23.9001H38.7101C40.4369 23.9764 41.7637 24.1881 42.8714 24.9155C43.5692 25.3733 44.1698 25.9616 44.6375 26.6496C45.2197 27.5038 45.4757 28.486 45.5987 29.6724C45.7194 30.833 45.7193 32.2866 45.7193 34.1278V34.2324C45.7193 36.0736 45.7194 37.5284 45.5987 38.6878C45.4757 39.8743 45.2197 40.8564 44.6375 41.7118C44.1672 42.3993 43.5673 42.9883 42.8714 43.446C42.0061 44.0133 41.0129 44.2644 39.8092 44.3838C38.6301 44.502 37.152 44.502 35.2738 44.502H29.7034C27.8252 44.502 26.347 44.502 25.168 44.3838C23.9643 44.2644 22.971 44.0146 22.1058 43.446C21.4097 42.988 20.8098 42.3985 20.3397 41.7106C19.7575 40.8564 19.5015 39.8743 19.3784 38.6878C19.2578 37.5284 19.2578 36.0736 19.2578 34.2324V34.1278C19.2578 32.2866 19.2578 30.833 19.3784 29.6724C19.5015 28.486 19.7575 27.5038 20.3397 26.6496C20.8098 25.9617 21.4097 25.3722 22.1058 24.9143C23.2135 24.1881 24.5403 23.9764 26.267 23.9013L26.288 23.9001H26.3077C26.4888 23.8938 26.6625 23.8268 26.8009 23.7099C26.9393 23.5929 27.0344 23.4327 27.0707 23.2552ZM30.4775 22.3481C29.6898 22.3481 29.0289 22.8933 28.88 23.6232C28.64 24.8047 27.5914 25.7352 26.3298 25.7463C24.6707 25.8201 23.7821 26.0232 23.1175 26.4589C22.6245 26.7837 22.1994 27.2013 21.8658 27.6884C21.5261 28.1869 21.3218 28.8256 21.2135 29.8632C21.1052 30.9167 21.104 32.2755 21.104 34.1807C21.104 36.086 21.104 37.4435 21.2147 38.497C21.3218 39.5346 21.5261 40.1733 21.867 40.673C22.1969 41.158 22.6215 41.5764 23.1187 41.9026C23.632 42.2386 24.2892 42.4416 25.3514 42.5475C26.427 42.6546 27.8129 42.6558 29.7538 42.6558H35.2234C37.163 42.6558 38.5489 42.6558 39.6258 42.5475C40.688 42.4416 41.3452 42.2398 41.8584 41.9026C42.3557 41.5764 42.7815 41.158 43.1114 40.6718C43.451 40.1733 43.6553 39.5346 43.7637 38.497C43.872 37.4435 43.8732 36.0847 43.8732 34.1807C43.8732 32.2767 43.8732 30.9167 43.7624 29.8632C43.6553 28.8256 43.451 28.1869 43.1101 27.6884C42.7767 27.2009 42.3515 26.7828 41.8584 26.4576C41.1963 26.0232 40.3077 25.8201 38.6461 25.7463C37.3858 25.734 36.3372 24.806 36.0972 23.6232C36.0184 23.2592 35.8165 22.9336 35.5254 22.7013C35.2343 22.469 34.872 22.3442 34.4997 22.3481H30.4775ZM32.4886 30.9635C31.7541 30.9635 31.0498 31.2552 30.5304 31.7746C30.0111 32.2939 29.7194 32.9983 29.7194 33.7327C29.7194 34.4672 30.0111 35.1715 30.5304 35.6909C31.0498 36.2102 31.7541 36.502 32.4886 36.502C33.223 36.502 33.9274 36.2102 34.4467 35.6909C34.9661 35.1715 35.2578 34.4672 35.2578 33.7327C35.2578 32.9983 34.9661 32.2939 34.4467 31.7746C33.9274 31.2552 33.223 30.9635 32.4886 30.9635ZM27.8732 33.7327C27.8732 32.5086 28.3595 31.3347 29.225 30.4692C30.0906 29.6036 31.2645 29.1173 32.4886 29.1173C33.7127 29.1173 34.8866 29.6036 35.7521 30.4692C36.6177 31.3347 37.104 32.5086 37.104 33.7327C37.104 34.9568 36.6177 36.1307 35.7521 36.9963C34.8866 37.8618 33.7127 38.3481 32.4886 38.3481C31.2645 38.3481 30.0906 37.8618 29.225 36.9963C28.3595 36.1307 27.8732 34.9568 27.8732 33.7327ZM38.9501 30.0404C38.9501 29.7956 39.0474 29.5608 39.2205 29.3877C39.3936 29.2146 39.6284 29.1173 39.8732 29.1173H41.104C41.3488 29.1173 41.5836 29.2146 41.7567 29.3877C41.9298 29.5608 42.027 29.7956 42.027 30.0404C42.027 30.2852 41.9298 30.52 41.7567 30.6931C41.5836 30.8662 41.3488 30.9635 41.104 30.9635H39.8732C39.6284 30.9635 39.3936 30.8662 39.2205 30.6931C39.0474 30.52 38.9501 30.2852 38.9501 30.0404Z" fill="#5D58E6"/>
</svg>
