<svg width="23" height="23" viewBox="0 0 23 23" fill="none" xmlns="http://www.w3.org/2000/svg">
<path d="M11.5 3.25H5.08333C4.5971 3.25 4.13079 3.44315 3.78697 3.78697C3.44315 4.13079 3.25 4.5971 3.25 5.08333V17.9167C3.25 18.4029 3.44315 18.8692 3.78697 19.213C4.13079 19.5568 4.5971 19.75 5.08333 19.75H17.9167C18.4029 19.75 18.8692 19.5568 19.213 19.213C19.5568 18.8692 19.75 18.4029 19.75 17.9167V11.5" stroke="#047857" stroke-width="2" stroke-linecap="round" stroke-linejoin="round"/>
<path d="M17.3422 2.90548C17.7069 2.54081 18.2015 2.33594 18.7172 2.33594C19.2329 2.33594 19.7275 2.54081 20.0922 2.90548C20.4569 3.27015 20.6618 3.76476 20.6618 4.28048C20.6618 4.79621 20.4569 5.29081 20.0922 5.65548L11.8303 13.9183C11.6126 14.1358 11.3437 14.295 11.0484 14.3812L8.41479 15.1512C8.33591 15.1742 8.2523 15.1756 8.17271 15.1552C8.09311 15.1348 8.02047 15.0934 7.96237 15.0353C7.90427 14.9772 7.86286 14.9046 7.84246 14.825C7.82207 14.7454 7.82345 14.6618 7.84646 14.5829L8.61646 11.9493C8.70311 11.6542 8.86261 11.3856 9.08029 11.1683L17.3422 2.90548Z" stroke="#047857" stroke-width="2" stroke-linecap="round" stroke-linejoin="round"/>
</svg>
