<svg width="22" height="23" viewBox="0 0 22 23" fill="none" xmlns="http://www.w3.org/2000/svg">
<path d="M10.9974 8.75C11.7267 8.75 12.4262 9.03973 12.9419 9.55546C13.4577 10.0712 13.7474 10.7707 13.7474 11.5C13.7474 12.2293 13.4577 12.9288 12.9419 13.4445C12.4262 13.9603 11.7267 14.25 10.9974 14.25C10.2681 14.25 9.56858 13.9603 9.05285 13.4445C8.53713 12.9288 8.2474 12.2293 8.2474 11.5C8.2474 10.7707 8.53713 10.0712 9.05285 9.55546C9.56858 9.03973 10.2681 8.75 10.9974 8.75ZM10.9974 4.625C15.5807 4.625 19.4949 7.47583 21.0807 11.5C19.4949 15.5242 15.5807 18.375 10.9974 18.375C6.41406 18.375 2.4999 15.5242 0.914062 11.5C2.4999 7.47583 6.41406 4.625 10.9974 4.625ZM2.9124 11.5C3.6533 13.0128 4.80376 14.2874 6.233 15.1788C7.66224 16.0703 9.31293 16.5429 10.9974 16.5429C12.6819 16.5429 14.3325 16.0703 15.7618 15.1788C17.191 14.2874 18.3415 13.0128 19.0824 11.5C18.3415 9.98722 17.191 8.71265 15.7618 7.82118C14.3325 6.92972 12.6819 6.45712 10.9974 6.45712C9.31293 6.45712 7.66224 6.92972 6.233 7.82118C4.80376 8.71265 3.6533 9.98722 2.9124 11.5Z" fill="#497EFF"/>
</svg>
