<svg width="18" height="18" viewBox="0 0 18 18" fill="none" xmlns="http://www.w3.org/2000/svg">
<g opacity="0.4">
<path fill-rule="evenodd" clip-rule="evenodd" d="M7.24352 8.35768C6.87894 8.35768 6.59066 8.64102 6.59066 8.99935C6.59066 9.34935 6.87894 9.64102 7.24352 9.64102H12.3307V13.6243C12.3307 15.666 10.6435 17.3327 8.55772 17.3327H4.4286C2.35132 17.3327 0.664062 15.6743 0.664062 13.6327V4.37435C0.664062 2.32435 2.3598 0.666016 4.43708 0.666016H8.57467C10.6435 0.666016 12.3307 2.32435 12.3307 4.36602V8.35768H7.24352ZM15.3559 6.11619L17.7893 8.54119C17.9143 8.66619 17.9809 8.82452 17.9809 8.99952C17.9809 9.16619 17.9143 9.33285 17.7893 9.44952L15.3559 11.8745C15.2309 11.9995 15.0643 12.0662 14.9059 12.0662C14.7393 12.0662 14.5726 11.9995 14.4476 11.8745C14.1976 11.6245 14.1976 11.2162 14.4476 10.9662L15.7809 9.64119H12.3309V8.35785H15.7809L14.4476 7.03285C14.1976 6.78285 14.1976 6.37452 14.4476 6.12452C14.6976 5.86619 15.1059 5.86619 15.3559 6.11619Z" fill="#030229"/>
</g>
</svg>
